<svg width="85" height="85" viewBox="0 0 85 85" fill="none" xmlns="http://www.w3.org/2000/svg">
<rect width="85" height="85" rx="42.5" fill="#00FF84" fill-opacity="0.81"/>
<path d="M63.1193 23.0003C59.3269 21.2066 55.2602 19.8851 51.0082 19.1282C50.9308 19.1136 50.8535 19.1501 50.8136 19.2231C50.2906 20.182 49.7112 21.4329 49.3055 22.4162C44.7323 21.7104 40.1824 21.7104 35.7029 22.4162C35.2971 21.4111 34.6968 20.182 34.1714 19.2231C34.1315 19.1525 34.0542 19.116 33.9768 19.1282C29.7271 19.8827 25.6604 21.2042 21.8657 23.0003C21.8329 23.0149 21.8047 23.0393 21.786 23.0709C14.0724 34.9502 11.9593 46.5375 12.9959 57.9811C13.0006 58.0371 13.0311 58.0906 13.0733 58.1247C18.1625 61.9773 23.0924 64.3162 27.9306 65.8665C28.0081 65.8908 28.0901 65.8616 28.1394 65.7959C29.2839 64.1848 30.3041 62.486 31.1788 60.6996C31.2304 60.595 31.1812 60.4708 31.0757 60.4294C29.4574 59.7967 27.9166 59.0251 26.4343 58.149C26.3171 58.0784 26.3077 57.9056 26.4156 57.8228C26.7275 57.5819 27.0395 57.3312 27.3373 57.0781C27.3912 57.0319 27.4663 57.0221 27.5296 57.0513C37.2672 61.6342 47.8092 61.6342 57.4319 57.0513C57.4953 57.0197 57.5703 57.0295 57.6266 57.0757C57.9245 57.3288 58.2364 57.5819 58.5507 57.8228C58.6585 57.9056 58.6515 58.0784 58.5342 58.149C57.052 59.0422 55.5111 59.7967 53.8906 60.427C53.7851 60.4684 53.7381 60.595 53.7897 60.6996C54.6833 62.4835 55.7035 64.1823 56.8268 65.7935C56.8738 65.8616 56.9582 65.8908 57.0356 65.8665C61.8973 64.3162 66.8271 61.9773 71.9164 58.1247C71.961 58.0906 71.9891 58.0395 71.9938 57.9835C73.2344 44.7534 69.9158 33.2612 63.1966 23.0733C63.1802 23.0393 63.1521 23.0149 63.1193 23.0003ZM32.633 51.0131C29.7013 51.0131 27.2857 48.2387 27.2857 44.8313C27.2857 41.424 29.6545 38.6496 32.633 38.6496C35.6349 38.6496 38.0271 41.4484 37.9802 44.8313C37.9802 48.2387 35.6114 51.0131 32.633 51.0131ZM52.4036 51.0131C49.4721 51.0131 47.0564 48.2387 47.0564 44.8313C47.0564 41.424 49.4251 38.6496 52.4036 38.6496C55.4056 38.6496 57.7978 41.4484 57.7509 44.8313C57.7509 48.2387 55.4056 51.0131 52.4036 51.0131Z" fill="white"/>
</svg>
