<svg width="280" height="279" viewBox="0 0 280 279" fill="none" xmlns="http://www.w3.org/2000/svg">
<path fill-rule="evenodd" clip-rule="evenodd" d="M134.546 1.31531C133.317 2.04761 131.225 4.16389 129.898 6.01937C126.467 10.8177 119.932 16.3588 115.435 18.2826C105.254 22.6393 97.018 23.3756 58.4434 23.3756C34.6586 23.3756 27.5341 23.5674 25.097 24.275C23.3927 24.7693 20.738 25.5309 19.1982 25.9666C10.7867 28.3476 4.17534 35.3845 1.44081 44.8667C-0.124173 50.2927 -0.141678 50.7798 0.137584 81.5829C0.425945 113.447 0.497359 114.407 3.56994 127.759C4.31044 130.978 5.17344 134.782 5.48699 136.213C7.02888 143.255 13.9706 160.928 19.3928 171.616C21.5436 175.856 27.602 186.197 30.2518 190.153C36.6378 199.684 43.1554 208.122 50.3896 216.223C56.1337 222.657 76.543 241.717 81.4102 245.194C83.379 246.6 87.8241 249.826 91.2887 252.363C98.5446 257.675 114.464 267.577 123.134 272.171C138.468 280.296 140.209 280.561 149.227 276.159C159.528 271.13 175.035 261.955 186.126 254.327C204.763 241.511 226.083 221.712 239.082 205.152C242.703 200.538 250.245 189.973 251.617 187.592C252.278 186.445 254.444 182.816 258.218 176.536C263.91 167.061 271.798 147.219 275.28 133.612C279.242 118.132 279.363 116.706 279.687 81.6043C279.957 52.4077 279.865 48.6766 278.786 44.8589C276.703 37.4942 273.447 32.8318 268.01 29.4298C264.019 26.9317 262.488 26.3204 255.951 24.6093C251.653 23.4848 248.568 23.3756 221.103 23.3756C204.53 23.3756 187.912 23.0679 184.174 22.6927C166.656 20.9321 159.236 17.387 150.747 6.72046C148.663 4.1021 146.023 1.51041 144.88 0.96151C141.945 -0.449123 137.24 -0.287834 134.546 1.31531ZM144.72 29.9201C151.851 35.8469 163.252 39.9227 178.965 42.1612C182.131 42.6126 195.797 42.8864 215.151 42.8864C234.938 42.8864 247.542 43.1439 249.804 43.5946C254.158 44.4622 257.212 46.7411 258.283 49.9194C259.483 53.4821 259.945 88.4461 258.967 101.744C258.233 111.737 257.727 115.131 255.379 125.807C254.525 129.687 252.671 136.347 251.939 138.164C251.649 138.88 250.833 141.221 250.124 143.367C249.414 145.513 248.586 147.708 248.283 148.245C247.98 148.781 246.815 151.415 245.695 154.098C242.917 160.748 235.573 173.864 230.218 181.738C211.428 209.37 186.749 231.42 151.831 251.777C144.741 255.91 141.443 257.506 139.993 257.506C137.233 257.506 115.33 244.446 102.374 235.076C86.5958 223.663 74.9528 212.828 60.7783 196.365C57.922 193.048 48.9443 180.994 48.9443 180.476C48.9443 180.289 47.6424 178.16 46.0515 175.744C40.1877 166.842 32.1024 150.047 28.7421 139.79C21.9306 118.995 20.7247 108.62 21.0676 73.7662C21.286 51.5661 21.3714 50.2485 22.7313 48.0893C23.5201 46.8373 25.4099 45.2277 26.9308 44.5123C29.5547 43.2786 31.5153 43.1927 65.0421 42.8467C93.6647 42.5508 101.586 42.2763 106.687 41.4042C118.919 39.312 127.743 35.8326 135.033 30.2258C137.535 28.3014 139.847 26.7048 140.17 26.6768C140.494 26.6495 142.541 28.1089 144.72 29.9201ZM87.0892 81.4814C85.1645 82.3223 81.5424 84.1772 79.0403 85.6034C76.5381 87.0297 74.1759 88.318 73.791 88.467C73.406 88.6152 70.7289 90.0246 67.8418 91.5984C64.9547 93.1723 60.5452 95.5539 58.0431 96.8911C43.2107 104.819 36.5664 108.7 35.5774 110.013C32.9346 113.523 33.4518 119.735 36.6455 122.831C37.6414 123.798 40.4222 125.56 42.8257 126.748C45.2284 127.935 48.5488 129.746 50.2041 130.772C51.8594 131.797 53.3789 132.636 53.5797 132.636C53.7813 132.636 59.8285 135.809 67.018 139.686C89.6332 151.882 88.2021 151.289 94.1933 150.965C97.0461 150.811 101.163 147.054 102.128 143.724C103.071 140.47 101.507 136.27 98.4445 133.834C97.2036 132.847 95.9704 132.027 95.7037 132.013C95.437 131.998 92.3756 130.376 88.9006 128.409C85.4256 126.442 82.3851 124.832 82.1437 124.832C81.9029 124.832 80.8698 124.288 79.848 123.624C78.8261 122.959 76.1007 121.458 73.791 120.288C69.327 118.028 67.1418 116.505 67.1418 115.655C67.1418 115.19 69.6168 113.758 79.5085 108.498C99.194 98.0325 100.814 96.8813 102.099 92.4472C103.199 88.6491 101.071 83.9788 97.3723 82.0771C93.1371 79.8997 90.9947 79.7755 87.0892 81.4814ZM151.481 81.1784C147.92 82.7158 146.42 84.3261 142.93 90.3628C138.929 97.2819 129.667 112.865 120.316 128.409C115.649 136.166 114.736 138.377 114.736 141.915C114.736 144.782 115.088 145.744 116.872 147.756C119.326 150.522 123.188 151.79 127.09 151.11C130.234 150.562 133.956 147.178 136.713 142.361C137.829 140.411 139.428 137.644 140.265 136.213C141.102 134.782 143.157 131.27 144.832 128.409C146.506 125.547 148.608 122.114 149.504 120.78C150.399 119.446 151.131 118.23 151.131 118.079C151.131 117.927 152.264 115.945 153.649 113.676C155.034 111.406 157.123 107.939 158.289 105.971C159.457 104.004 161.531 100.514 162.9 98.2146C165.044 94.6122 165.382 93.463 165.346 89.8886C165.311 86.4534 165.018 85.4577 163.642 84.0881C160.055 80.5208 155.518 79.4347 151.481 81.1784ZM182.83 81.8469C180.201 83.3805 177.727 87.5096 177.727 90.3628C177.727 91.4645 178.342 93.4851 179.093 94.8529C180.528 97.4673 181.907 98.3889 194.357 105.054C209.887 113.368 212.807 115.163 212.581 116.257C212.459 116.845 210.566 118.21 208.373 119.29C200.747 123.05 182.965 132.846 181.312 134.2C179.253 135.885 177.727 139.1 177.727 141.753C177.727 144.274 179.094 146.732 181.849 149.166C183.722 150.821 184.513 151.06 188.036 151.039C191.951 151.017 192.643 150.712 210.548 141.125C220.708 135.685 230.157 130.59 231.545 129.803C232.934 129.016 235.293 127.795 236.788 127.09C238.283 126.384 240.96 124.596 242.738 123.116L245.968 120.425V115.852C245.968 110.447 245.071 109.249 238.306 105.617C235.976 104.366 233.597 103.064 233.02 102.723C232.443 102.383 227.246 99.5797 221.472 96.4944C215.697 93.409 206.878 88.6627 201.874 85.9468C194.077 81.7156 192.224 80.9754 188.926 80.7725C185.962 80.5904 184.559 80.8376 182.83 81.8469Z" fill="#C4C4C4"/>
</svg>
