<svg width="60" height="61" viewBox="0 0 60 61" fill="none" xmlns="http://www.w3.org/2000/svg">
<path fill-rule="evenodd" clip-rule="evenodd" d="M28.8504 0.287576C28.5867 0.447686 28.1382 0.910384 27.8538 1.31606C27.1179 2.36517 25.7166 3.57666 24.7525 3.99727C22.5693 4.94982 20.8033 5.11078 12.5319 5.11078C7.43174 5.11078 5.90406 5.15273 5.38148 5.30744C5.01604 5.41551 4.44679 5.58201 4.11661 5.67728C2.31297 6.19785 0.895307 7.73639 0.308949 9.80957C-0.0266261 10.9959 -0.0303796 11.1024 0.0295019 17.8371C0.0913343 24.8039 0.106647 25.0136 0.765492 27.9329C0.924275 28.6367 1.10933 29.4686 1.17656 29.7814C1.50718 31.3211 2.99568 35.1849 4.15834 37.5218C4.61953 38.4488 5.91862 40.7098 6.48682 41.5746C7.85613 43.6585 9.25369 45.5034 10.8049 47.2746C12.0366 48.6813 16.4129 52.8485 17.4566 53.6086C17.8787 53.9162 18.8319 54.6215 19.5748 55.176C21.1306 56.3375 24.5442 58.5025 26.4034 59.507C29.6913 61.2832 30.0646 61.3414 31.9983 60.3787C34.2071 59.2793 37.5322 57.2734 39.9105 55.6056C43.9067 52.8034 48.4784 48.4746 51.2657 44.8539C52.0422 43.8452 53.6593 41.5354 53.9536 41.0147C54.0953 40.7639 54.5598 39.9704 55.369 38.5974C56.5896 36.5258 58.2808 32.1876 59.0276 29.2126C59.8771 25.8281 59.903 25.5164 59.9725 17.8418C60.0303 11.4583 60.0106 10.6425 59.7792 9.80787C59.3326 8.19767 58.6344 7.17828 57.4688 6.43446C56.6129 5.8883 56.2846 5.75464 54.8829 5.38053C53.9613 5.13467 53.2998 5.11078 47.4104 5.11078C43.8569 5.11078 40.2934 5.04353 39.492 4.96148C35.7355 4.57656 34.1445 3.80146 32.3243 1.46935C31.8774 0.896875 31.3113 0.330234 31.0662 0.210223C30.4368 -0.0981954 29.4281 -0.0629315 28.8504 0.287576ZM31.0318 6.54168C32.561 7.83749 35.0056 8.72862 38.3751 9.21805C39.0539 9.31673 41.9842 9.37659 46.1342 9.37659C50.377 9.37659 53.0798 9.4329 53.5647 9.53144C54.4984 9.72113 55.1533 10.2194 55.3829 10.9143C55.6402 11.6932 55.7392 19.3377 55.5296 22.2451C55.3722 24.4299 55.2636 25.172 54.7601 27.5063C54.5772 28.3546 54.1796 29.8105 54.0225 30.208C53.9605 30.3644 53.7855 30.8763 53.6333 31.3455C53.4812 31.8148 53.3036 32.2947 53.2386 32.412C53.1736 32.5293 52.9239 33.1052 52.6836 33.6917C52.0881 35.1456 50.5132 38.0133 49.3649 39.7349C45.3359 45.7762 40.0441 50.5971 32.5566 55.0479C31.0365 55.9516 30.3293 56.3005 30.0184 56.3005C29.4266 56.3005 24.73 53.4451 21.9519 51.3965C18.5685 48.9013 16.0719 46.5324 13.0325 42.9329C12.4201 42.2077 10.495 39.5721 10.495 39.4589C10.495 39.418 10.2158 38.9524 9.87471 38.4243C8.61735 36.478 6.88362 32.806 6.16309 30.5634C4.70253 26.0168 4.44394 23.7485 4.51747 16.1281C4.5643 11.2743 4.58261 10.9862 4.87422 10.5141C5.04335 10.2404 5.44857 9.88849 5.77469 9.73208C6.33734 9.46234 6.75774 9.44357 13.9468 9.36792C20.0843 9.30322 21.7827 9.24321 22.8765 9.05253C25.4994 8.5951 27.3915 7.83436 28.9547 6.60851C29.4913 6.18776 29.987 5.83867 30.0563 5.83256C30.1257 5.82659 30.5646 6.14567 31.0318 6.54168ZM18.6743 17.8149C18.2616 17.9988 17.4849 18.4043 16.9484 18.7162C16.4119 19.028 15.9053 19.3097 15.8228 19.3422C15.7403 19.3747 15.1662 19.6828 14.5471 20.0269C13.928 20.371 12.9825 20.8917 12.446 21.1841C9.26555 22.9174 7.84083 23.7659 7.62877 24.0531C7.06207 24.8205 7.17298 26.1786 7.85779 26.8556C8.07135 27.0669 8.66762 27.4523 9.18299 27.7119C9.69821 27.9715 10.4102 28.3674 10.7651 28.5916C11.1201 28.8159 11.4459 28.9993 11.489 28.9993C11.5322 28.9993 12.8289 29.6929 14.3705 30.5407C19.2198 33.2073 18.9129 33.0774 20.1976 33.0068C20.8093 32.9731 21.6921 32.1516 21.8991 31.4236C22.1012 30.7122 21.7658 29.7939 21.1092 29.2612C20.8431 29.0454 20.5787 28.8661 20.5215 28.863C20.4643 28.8597 19.8078 28.5052 19.0627 28.0751C18.3176 27.6449 17.6656 27.293 17.6138 27.293C17.5622 27.293 17.3407 27.1741 17.1216 27.0288C16.9025 26.8835 16.3181 26.5553 15.8228 26.2995C14.8656 25.8054 14.397 25.4723 14.397 25.2865C14.397 25.1848 14.9277 24.8717 17.0488 23.7218C21.2699 21.4336 21.6172 21.1819 21.8928 20.2125C22.1287 19.382 21.6723 18.361 20.8793 17.9452C19.9711 17.4691 19.5117 17.442 18.6743 17.8149ZM32.4816 17.7487C31.718 18.0848 31.3965 18.4369 30.6481 19.7567C29.7901 21.2695 27.8041 24.6766 25.799 28.0751C24.7983 29.771 24.6024 30.2545 24.6024 31.028C24.6024 31.6548 24.6779 31.8651 25.0606 32.305C25.5868 32.9099 26.4149 33.1871 27.2516 33.0385C27.9258 32.9186 28.7238 32.1788 29.3149 31.1255C29.5543 30.6991 29.8971 30.0942 30.0766 29.7814C30.2561 29.4686 30.6967 28.7007 31.0559 28.0751C31.4148 27.4494 31.8657 26.6988 32.0576 26.4071C32.2496 26.1153 32.4066 25.8496 32.4066 25.8165C32.4066 25.7833 32.6495 25.3501 32.9465 24.8538C33.2436 24.3575 33.6914 23.5995 33.9416 23.1694C34.1919 22.7392 34.6367 21.9761 34.9301 21.4734C35.39 20.6858 35.4623 20.4346 35.4547 19.6531C35.4472 18.902 35.3844 18.6843 35.0892 18.3848C34.3202 17.6049 33.3473 17.3675 32.4816 17.7487ZM39.2037 17.8948C38.6401 18.2301 38.1096 19.1329 38.1096 19.7567C38.1096 19.9976 38.2413 20.4394 38.4024 20.7384C38.7102 21.3101 39.0059 21.5115 41.6755 22.9687C45.0056 24.7865 45.6317 25.179 45.5831 25.4182C45.557 25.5467 45.151 25.8452 44.6809 26.0814C43.0455 26.9034 39.2328 29.0452 38.8781 29.3413C38.4367 29.7096 38.1096 30.4126 38.1096 30.9926C38.1096 31.5437 38.4027 32.0812 38.9934 32.6135C39.395 32.9752 39.5646 33.0275 40.3201 33.023C41.1596 33.018 41.3079 32.9515 45.1472 30.8554C47.3258 29.6659 49.3519 28.552 49.6496 28.3799C49.9474 28.2079 50.4533 27.9408 50.7739 27.7867C51.0944 27.6324 51.6685 27.2415 52.0495 26.9179L52.7423 26.3295V25.3297C52.7423 24.148 52.5499 23.8859 51.0994 23.0919C50.5998 22.8183 50.0897 22.5336 49.9658 22.4591C49.842 22.3848 48.7277 21.7719 47.4895 21.0973C46.2514 20.4228 44.3604 19.385 43.2873 18.7912C41.6154 17.8661 41.2182 17.7043 40.5108 17.6599C39.8754 17.6201 39.5745 17.6742 39.2037 17.8948Z" fill="#00FF84"/>
</svg>
