<svg width="85" height="85" viewBox="0 0 85 85" fill="none" xmlns="http://www.w3.org/2000/svg">
<g clip-path="url(#clip0_202_30)">
<path d="M42.5 7.65979C53.8547 7.65979 55.1876 7.7104 59.6755 7.91286C63.826 8.09845 66.0699 8.79019 67.5715 9.38071C69.5624 10.1568 70.9796 11.0679 72.4643 12.5526C73.949 14.0373 74.877 15.4545 75.6362 17.4454C76.2099 18.947 76.9185 21.1909 77.1041 25.3414C77.3065 29.8293 77.3571 31.1622 77.3571 42.5169C77.3571 53.8716 77.3065 55.2044 77.1041 59.6923C76.9185 63.8428 76.2267 66.0867 75.6362 67.5883C74.8601 69.5792 73.949 70.9964 72.4643 72.4811C70.9796 73.9659 69.5624 74.8938 67.5715 75.653C66.0699 76.2267 63.826 76.9353 59.6755 77.1209C55.1876 77.3233 53.8547 77.374 42.5 77.374C31.1453 77.374 29.8124 77.3233 25.3246 77.1209C21.1741 76.9353 18.9301 76.2435 17.4286 75.653C15.4377 74.8769 14.0205 73.9659 12.5357 72.4811C11.051 70.9964 10.1231 69.5792 9.36384 67.5883C8.7902 66.0867 8.08159 63.8428 7.896 59.6923C7.69353 55.2044 7.64292 53.8716 7.64292 42.5169C7.64292 31.1622 7.69353 29.8293 7.896 25.3414C8.08159 21.1909 8.77333 18.947 9.36384 17.4454C10.1399 15.4545 11.051 14.0373 12.5357 12.5526C14.0205 11.0679 15.4377 10.1399 17.4286 9.38071C18.9301 8.80707 21.1741 8.09845 25.3246 7.91286C29.8124 7.69353 31.1622 7.65979 42.5 7.65979ZM42.5 0C30.9597 0 29.5088 0.0506153 24.9702 0.253077C20.4486 0.455538 17.3611 1.18102 14.6616 2.22707C11.8609 3.30687 9.49882 4.77471 7.13677 7.13676C4.77472 9.49881 3.32374 11.8777 2.22708 14.6616C1.18102 17.3611 0.455538 20.4486 0.253077 24.9871C0.0506154 29.5087 0 30.9597 0 42.5C0 54.0403 0.0506154 55.4913 0.253077 60.0298C0.455538 64.5514 1.18102 67.6389 2.22708 70.3553C3.30687 73.156 4.77472 75.5181 7.13677 77.8801C9.49882 80.2422 11.8777 81.6931 14.6616 82.7898C17.3611 83.8358 20.4486 84.5613 24.9871 84.7638C29.5256 84.9663 30.9597 85.0169 42.5169 85.0169C54.0741 85.0169 55.5082 84.9663 60.0467 84.7638C64.5683 84.5613 67.6559 83.8358 70.3722 82.7898C73.1729 81.71 75.535 80.2422 77.897 77.8801C80.2591 75.5181 81.7101 73.1391 82.8067 70.3553C83.8528 67.6558 84.5783 64.5683 84.7807 60.0298C84.9832 55.4913 85.0338 54.0572 85.0338 42.5C85.0338 30.9428 84.9832 29.5087 84.7807 24.9702C84.5783 20.4486 83.8528 17.3611 82.8067 14.6447C81.7269 11.844 80.2591 9.48194 77.897 7.11989C75.535 4.75784 73.1561 3.30687 70.3722 2.2102C67.6727 1.16415 64.5852 0.438666 60.0467 0.236205C55.4913 0.0506153 54.0403 0 42.5 0Z" fill="#00FF84" fill-opacity="0.81"/>
<path d="M42.5 7.65979C53.8547 7.65979 55.1876 7.7104 59.6755 7.91286C63.826 8.09845 66.0699 8.79019 67.5715 9.38071C69.5624 10.1568 70.9796 11.0679 72.4643 12.5526C73.949 14.0373 74.877 15.4545 75.6362 17.4454C76.2099 18.947 76.9185 21.1909 77.1041 25.3414C77.3065 29.8293 77.3571 31.1622 77.3571 42.5169C77.3571 53.8716 77.3065 55.2044 77.1041 59.6923C76.9185 63.8428 76.2267 66.0867 75.6362 67.5883C74.8601 69.5792 73.949 70.9964 72.4643 72.4811C70.9796 73.9659 69.5624 74.8938 67.5715 75.653C66.0699 76.2267 63.826 76.9353 59.6755 77.1209C55.1876 77.3233 53.8547 77.374 42.5 77.374C31.1453 77.374 29.8124 77.3233 25.3246 77.1209C21.1741 76.9353 18.9301 76.2435 17.4286 75.653C15.4377 74.8769 14.0205 73.9659 12.5357 72.4811C11.051 70.9964 10.1231 69.5792 9.36384 67.5883C8.7902 66.0867 8.08159 63.8428 7.896 59.6923C7.69353 55.2044 7.64292 53.8716 7.64292 42.5169C7.64292 31.1622 7.69353 29.8293 7.896 25.3414C8.08159 21.1909 8.77333 18.947 9.36384 17.4454C10.1399 15.4545 11.051 14.0373 12.5357 12.5526C14.0205 11.0679 15.4377 10.1399 17.4286 9.38071C18.9301 8.80707 21.1741 8.09845 25.3246 7.91286C29.8124 7.69353 31.1622 7.65979 42.5 7.65979Z" fill="#00FF84" fill-opacity="0.81"/>
<path d="M42.5 20.6846C30.4535 20.6846 20.6679 30.4533 20.6679 42.5166C20.6679 54.58 30.4367 64.3487 42.5 64.3487C54.5633 64.3487 64.3321 54.58 64.3321 42.5166C64.3321 30.4533 54.5633 20.6846 42.5 20.6846ZM42.5 56.6721C34.6715 56.6721 28.3277 50.3283 28.3277 42.4998C28.3277 34.6713 34.6715 28.3275 42.5 28.3275C50.3285 28.3275 56.6723 34.6713 56.6723 42.4998C56.6723 50.3283 50.3285 56.6721 42.5 56.6721Z" fill="white"/>
<path d="M65.1926 24.903C68.0066 24.903 70.2878 22.6217 70.2878 19.8077C70.2878 16.9936 68.0066 14.7124 65.1926 14.7124C62.3785 14.7124 60.0973 16.9936 60.0973 19.8077C60.0973 22.6217 62.3785 24.903 65.1926 24.903Z" fill="white"/>
</g>
<defs>
<clipPath id="clip0_202_30">
<rect width="85" height="85" fill="white"/>
</clipPath>
</defs>
</svg>
