<svg width="92" height="92" viewBox="0 0 92 92" fill="none" xmlns="http://www.w3.org/2000/svg">
<rect width="92" height="92" rx="46" fill="#00CF6B"/>
<path d="M67.5647 20.7002H24.4353C23.4446 20.7002 22.4945 21.0937 21.794 21.7942C21.0935 22.4947 20.7 23.4448 20.7 24.4355V67.5649C20.7 68.5556 21.0935 69.5057 21.794 70.2062C22.4945 70.9067 23.4446 71.3002 24.4353 71.3002H67.5647C68.5554 71.3002 69.5055 70.9067 70.206 70.2062C70.9065 69.5057 71.3 68.5556 71.3 67.5649V24.4355C71.3 23.4448 70.9065 22.4947 70.206 21.7942C69.5055 21.0937 68.5554 20.7002 67.5647 20.7002ZM35.7816 63.8051H28.1741V39.6401H35.7816V63.8051ZM31.9726 36.2913C31.1096 36.2865 30.2675 36.0261 29.5523 35.543C28.8372 35.06 28.2812 34.376 27.9545 33.5772C27.6278 32.7785 27.545 31.9009 27.7166 31.0552C27.8882 30.2094 28.3065 29.4335 28.9186 28.8253C29.5308 28.217 30.3094 27.8037 31.1562 27.6376C32.003 27.4714 32.8801 27.5599 33.6767 27.8917C34.4733 28.2235 35.1538 28.7839 35.6322 29.5021C36.1106 30.2203 36.3656 31.0641 36.3649 31.9271C36.3731 32.5048 36.2648 33.0783 36.0466 33.6133C35.8284 34.1483 35.5047 34.634 35.0948 35.0412C34.6849 35.4485 34.1972 35.769 33.6608 35.9838C33.1244 36.1986 32.5503 36.3032 31.9726 36.2913ZM63.8225 63.8262H56.2184V50.6245C56.2184 46.7311 54.5634 45.5293 52.4269 45.5293C50.171 45.5293 47.9572 47.2301 47.9572 50.7229V63.8262H40.3497V39.6576H47.6656V43.0064H47.764C48.4984 41.52 51.0706 38.9794 54.9956 38.9794C59.2403 38.9794 63.826 41.4989 63.826 48.8781L63.8225 63.8262Z" fill="white"/>
</svg>
