<svg width="60" height="67" viewBox="0 0 60 67" fill="none" xmlns="http://www.w3.org/2000/svg">
<path id="image 1 (Traced)" fill-rule="evenodd" clip-rule="evenodd" d="M28.8504 0.315862C28.5867 0.491721 28.1382 0.99993 27.8538 1.44551C27.1179 2.59781 25.7166 3.92846 24.7525 4.39044C22.5693 5.43669 20.8033 5.61348 12.5319 5.61348C7.43174 5.61348 5.90406 5.65956 5.38148 5.82948C5.01604 5.94818 4.44679 6.13106 4.11661 6.2357C2.31297 6.80748 0.895307 8.49735 0.308949 10.7744C-0.0266261 12.0775 -0.0303796 12.1944 0.0295019 19.5916C0.0913343 27.2436 0.106647 27.474 0.765492 30.6804C0.924275 31.4535 1.10933 32.3671 1.17656 32.7107C1.50718 34.4018 2.99568 38.6457 4.15834 41.2125C4.61953 42.2306 5.91862 44.7141 6.48682 45.6639C7.85613 47.9528 9.25369 49.9792 10.8049 51.9246C12.0366 53.4697 16.4129 58.0467 17.4566 58.8816C17.8787 59.2194 18.8319 59.9941 19.5748 60.6032C21.1306 61.8789 24.5442 64.2569 26.4034 65.3601C29.6913 67.3111 30.0646 67.375 31.9983 66.3176C34.2071 65.1101 37.5322 62.9068 39.9105 61.075C43.9067 57.9972 48.4784 53.2426 51.2657 49.2658C52.0422 48.1578 53.6593 45.6208 53.9536 45.0489C54.0953 44.7734 54.5598 43.9019 55.369 42.3939C56.5896 40.1185 58.2808 35.3536 59.0276 32.086C59.8771 28.3686 59.903 28.0262 59.9725 19.5967C60.0303 12.5854 60.0106 11.6894 59.7792 10.7726C59.3326 9.00399 58.6344 7.88434 57.4688 7.06736C56.6129 6.46748 56.2846 6.32067 54.8829 5.90976C53.9613 5.63972 53.2998 5.61348 47.4104 5.61348C43.8569 5.61348 40.2934 5.53961 39.492 5.44949C35.7355 5.02672 34.1445 4.17538 32.3243 1.61387C31.8774 0.985092 31.3113 0.362716 31.0662 0.2309C30.4368 -0.107854 29.4281 -0.0691215 28.8504 0.315862ZM31.0318 7.18512C32.561 8.60839 35.0056 9.58717 38.3751 10.1247C39.0539 10.2331 41.9842 10.2989 46.1342 10.2989C50.377 10.2989 53.0798 10.3607 53.5647 10.469C54.4984 10.6773 55.1533 11.2246 55.3829 11.9878C55.6402 12.8434 55.7392 21.2398 55.5296 24.4332C55.3722 26.8329 55.2636 27.648 54.7601 30.2118C54.5772 31.1436 54.1796 32.7427 54.0225 33.1792C53.9605 33.351 53.7855 33.9133 53.6333 34.4287C53.4811 34.9441 53.3036 35.4712 53.2386 35.6C53.1736 35.7289 52.9239 36.3614 52.6836 37.0056C52.0881 38.6026 50.5132 41.7523 49.3649 43.6433C45.3359 50.2788 40.0441 55.5739 32.5566 60.4625C31.0365 61.455 30.3293 61.8383 30.0184 61.8383C29.4266 61.8383 24.73 58.702 21.9519 56.4519C18.5685 53.7113 16.0719 51.1093 13.0325 47.1558C12.4201 46.3593 10.495 43.4645 10.495 43.3401C10.495 43.2952 10.2158 42.7838 9.8747 42.2038C8.61735 40.066 6.88362 36.0328 6.16309 33.5697C4.70253 28.5758 4.44394 26.0845 4.51747 17.7145C4.5643 12.3833 4.58261 12.0668 4.87422 11.5483C5.04335 11.2477 5.44857 10.8611 5.77469 10.6893C6.33734 10.3931 6.75774 10.3724 13.9468 10.2894C20.0843 10.2183 21.7828 10.1524 22.8765 9.94295C25.4994 9.44052 27.3915 8.60495 28.9547 7.25853C29.4913 6.79639 29.987 6.41297 30.0563 6.40625C30.1257 6.39969 30.5646 6.75016 31.0318 7.18512ZM18.6743 19.5672C18.2616 19.7692 17.4849 20.2146 16.9484 20.5571C16.4119 20.8996 15.9053 21.209 15.8228 21.2448C15.7403 21.2804 15.1662 21.6188 14.5471 21.9968C13.928 22.3747 12.9825 22.9466 12.446 23.2677C9.26555 25.1716 7.84083 26.1035 7.62877 26.419C7.06207 27.2619 7.17298 28.7536 7.85779 29.4971C8.07135 29.7292 8.66762 30.1525 9.18299 30.4377C9.69821 30.7228 10.4102 31.1576 10.7651 31.4039C11.1201 31.6502 11.4459 31.8517 11.489 31.8517C11.5322 31.8517 12.8289 32.6136 14.3705 33.5447C19.2198 36.4735 18.9129 36.331 20.1976 36.2533C20.8093 36.2163 21.6921 35.3141 21.8991 34.5144C22.1012 33.7331 21.7658 32.7244 21.1092 32.1394C20.8431 31.9023 20.5787 31.7054 20.5215 31.7019C20.4643 31.6983 19.8078 31.309 19.0627 30.8365C18.3176 30.3641 17.6656 29.9776 17.6138 29.9776C17.5622 29.9776 17.3407 29.847 17.1216 29.6874C16.9025 29.5278 16.3181 29.1673 15.8228 28.8863C14.8656 28.3436 14.397 27.9778 14.397 27.7737C14.397 27.662 14.9277 27.3181 17.0488 26.0551C21.2699 23.5418 21.6172 23.2654 21.8928 22.2006C22.1287 21.2885 21.6723 20.167 20.8793 19.7103C19.9711 19.1874 19.5117 19.1576 18.6743 19.5672ZM32.4816 19.4944C31.718 19.8637 31.3965 20.2504 30.6481 21.7C29.7901 23.3616 27.8041 27.1038 25.799 30.8365C24.7983 32.6993 24.6024 33.2303 24.6024 34.0799C24.6024 34.7684 24.6779 34.9994 25.0606 35.4826C25.5868 36.147 26.4149 36.4514 27.2516 36.2882C27.9258 36.1565 28.7238 35.3439 29.3149 34.1871C29.5543 33.7187 29.8971 33.0543 30.0766 32.7107C30.2561 32.3671 30.6967 31.5237 31.0559 30.8365C31.4148 30.1493 31.8657 29.3249 32.0576 29.0045C32.2496 28.6841 32.4066 28.3922 32.4066 28.3558C32.4066 28.3194 32.6495 27.8435 32.9465 27.2984C33.2436 26.7534 33.6914 25.9208 33.9416 25.4483C34.1919 24.9759 34.6367 24.1377 34.9301 23.5856C35.39 22.7205 35.4623 22.4445 35.4547 21.5862C35.4472 20.7612 35.3844 20.5221 35.0892 20.1932C34.3202 19.3365 33.3473 19.0757 32.4816 19.4944ZM39.2037 19.655C38.6401 20.0233 38.1096 21.0149 38.1096 21.7C38.1096 21.9646 38.2413 22.4498 38.4024 22.7783C38.7102 23.4061 39.0059 23.6274 41.6755 25.228C45.0056 27.2246 45.6317 27.6556 45.5831 27.9183C45.557 28.0595 45.151 28.3873 44.6809 28.6467C43.0455 29.5496 39.2328 31.9022 38.8781 32.2273C38.4367 32.6318 38.1096 33.404 38.1096 34.041C38.1096 34.6464 38.4027 35.2368 38.9934 35.8213C39.395 36.2187 39.5646 36.2761 40.3201 36.2711C41.1596 36.2657 41.3079 36.1926 45.1472 33.8903C47.3258 32.5839 49.3519 31.3604 49.6496 31.1714C49.9474 30.9824 50.4533 30.6891 50.7739 30.5198C51.0944 30.3503 51.6685 29.921 52.0495 29.5655L52.7423 28.9193V27.8212C52.7423 26.5232 52.5499 26.2353 51.0994 25.3632C50.5998 25.0627 50.0897 24.7501 49.9658 24.6682C49.842 24.5865 48.7277 23.9134 47.4895 23.1725C46.2514 22.4316 44.3604 21.2918 43.2873 20.6396C41.6154 19.6234 41.2182 19.4457 40.5108 19.397C39.8754 19.3533 39.5745 19.4126 39.2037 19.655Z" fill="#00FF84"/>
</svg>
