<svg width="85" height="85" viewBox="0 0 85 85" fill="none" xmlns="http://www.w3.org/2000/svg">
<rect width="85" height="85" rx="42.5" fill="#00FF84" fill-opacity="0.81"/>
<path d="M34.7225 64.9186C53.5713 64.9186 63.8775 49.2998 63.8775 35.7636C63.8775 35.3173 63.8775 34.8711 63.8563 34.4461C65.8538 33.0011 67.5963 31.1948 68.9775 29.1336C67.15 29.9411 65.1738 30.4936 63.0913 30.7486C65.2163 29.4736 66.8313 27.4761 67.5963 25.0748C65.62 26.2436 63.4313 27.0936 61.0938 27.5611C59.2238 25.5636 56.5675 24.3311 53.6138 24.3311C47.9613 24.3311 43.3713 28.9211 43.3713 34.5736C43.3713 35.3811 43.4563 36.1673 43.6475 36.9111C35.1263 36.4861 27.5825 32.4061 22.525 26.2011C21.6538 27.7098 21.1438 29.4736 21.1438 31.3436C21.1438 34.8923 22.95 38.0373 25.7125 39.8648C24.0338 39.8223 22.4613 39.3548 21.08 38.5898C21.08 38.6323 21.08 38.6748 21.08 38.7173C21.08 43.6898 24.6075 47.8123 29.3038 48.7686C28.4538 49.0023 27.54 49.1298 26.605 49.1298C25.9463 49.1298 25.3088 49.0661 24.6713 48.9386C25.9675 53.0186 29.75 55.9723 34.2338 56.0573C30.7275 58.7986 26.3075 60.4348 21.505 60.4348C20.6763 60.4348 19.8688 60.3923 19.0613 60.2861C23.545 63.2186 28.9425 64.9186 34.7225 64.9186Z" fill="white"/>
</svg>
